<svg xmlns="http://www.w3.org/2000/svg" width="30" height="30" fill="none"><path fill="currentColor" fill-rule="evenodd" d="M14.955 0C6.685 0 0 6.875 0 15.38c0 6.8 4.284 12.554 10.226 14.59.743.154 1.015-.33 1.015-.737 0-.357-.024-1.579-.024-2.852-4.16.916-5.027-1.834-5.027-1.834-.668-1.782-1.66-2.24-1.66-2.24-1.36-.943.1-.943.1-.943 1.51.102 2.303 1.58 2.303 1.58 1.337 2.342 3.491 1.68 4.358 1.272.123-.993.52-1.68.94-2.062-3.317-.357-6.808-1.68-6.808-7.589 0-1.68.594-3.055 1.535-4.125-.149-.382-.669-1.96.148-4.074 0 0 1.263-.408 4.11 1.579a14.103 14.103 0 0 1 3.74-.51c1.262 0 2.55.179 3.738.51 2.848-1.987 4.11-1.58 4.11-1.58.818 2.114.297 3.693.149 4.075.966 1.07 1.535 2.445 1.535 4.125 0 5.908-3.491 7.207-6.834 7.589.545.483 1.015 1.4 1.015 2.852 0 2.062-.024 3.717-.024 4.227 0 .407.272.891 1.015.738 5.942-2.037 10.226-7.792 10.226-14.59C29.91 6.874 23.2 0 14.956 0Z" clip-rule="evenodd"/></svg>